<svg width="320" height="256" viewBox="0 0 320 256" fill="none" xmlns="http://www.w3.org/2000/svg">
  <!-- Background -->
  <rect width="320" height="256" fill="url(#gradient1)" rx="16"/>
  
  <!-- Books Stack -->
  <rect x="40" y="180" width="80" height="12" rx="2" fill="#3B82F6"/>
  <rect x="45" y="168" width="70" height="12" rx="2" fill="#8B5CF6"/>
  <rect x="50" y="156" width="60" height="12" rx="2" fill="#EF4444"/>
  
  <!-- Graduation Cap -->
  <path d="M160 80L200 95L160 110L120 95L160 80Z" fill="#1F2937"/>
  <rect x="158" y="110" width="4" height="20" fill="#1F2937"/>
  <circle cx="162" cy="132" r="3" fill="#EF4444"/>
  
  <!-- Student Figure -->
  <circle cx="160" cy="140" r="15" fill="#F3F4F6"/>
  <rect x="150" y="155" width="20" height="30" rx="10" fill="#3B82F6"/>
  <rect x="145" y="160" width="30" height="2" rx="1" fill="#1F2937"/>
  
  <!-- Laptop -->
  <rect x="200" y="160" width="60" height="40" rx="4" fill="#374151"/>
  <rect x="205" y="165" width="50" height="30" rx="2" fill="#F3F4F6"/>
  <rect x="210" y="170" width="40" height="20" rx="1" fill="#60A5FA"/>
  
  <!-- Light Bulb -->
  <circle cx="80" cy="100" r="12" fill="#FCD34D"/>
  <rect x="76" y="112" width="8" height="6" rx="2" fill="#9CA3AF"/>
  <path d="M74 96L86 96M76 90L84 90M78 84L82 84" stroke="#F59E0B" stroke-width="2" stroke-linecap="round"/>
  
  <!-- Floating Elements -->
  <circle cx="250" cy="60" r="6" fill="#10B981" opacity="0.7"/>
  <rect x="60" y="50" width="8" height="8" rx="2" fill="#F59E0B" opacity="0.7"/>
  <path d="M280 120L285 110L290 120L285 130Z" fill="#8B5CF6" opacity="0.7"/>
  
  <!-- Decorative Lines -->
  <path d="M20 40L300 40" stroke="url(#gradient2)" stroke-width="2" opacity="0.3"/>
  <path d="M20 220L300 220" stroke="url(#gradient2)" stroke-width="2" opacity="0.3"/>
  
  <defs>
    <linearGradient id="gradient1" x1="0%" y1="0%" x2="100%" y2="100%">
      <stop offset="0%" style="stop-color:#EEF2FF"/>
      <stop offset="100%" style="stop-color:#E0E7FF"/>
    </linearGradient>
    <linearGradient id="gradient2" x1="0%" y1="0%" x2="100%" y2="0%">
      <stop offset="0%" style="stop-color:#3B82F6"/>
      <stop offset="50%" style="stop-color:#8B5CF6"/>
      <stop offset="100%" style="stop-color:#EF4444"/>
    </linearGradient>
  </defs>
</svg>
